/* XPM */
static char *result[] = {
/* columns rows colors chars-per-pixel */
"32 32 9 1 ",
"  c #101010",
". c gray19",
"X c gray44",
"o c #909090",
"O c #808080",
"+ c #606060",
"@ c #505050",
"# c gray25",
"$ c #202020",
/* pixels */
"          .     .               ",
"XoOo XoOXX oOXoO oXOXo oXXXOOXX ",
"O++@.X+++. X++@# X+#@# X++@@#@. ",
"O+@..X+#.#.X@##..X@.#. X@@##.@. ",
"   . .     .     . .  $.        ",
" oXoX+X+ oO+oXOX+ oO+X+.+oO+ +X.",
" o+#@@## X@@#@@@# X@@#@ X@## X@.",
" O++#@##.+#@###@#$X##@#$X#@# +..",
"      ..  . .    $$ $ $.     .  ",
"OX+XXX+.XXoXoX+.+XOX+ +XoOoO+X+ ",
"X++@@#. ++###.. X+@#@ X@#@#@@.# ",
"X+@#@.# +@#.#@# +@#.. +#@#@#.#. ",
"    .  ..  .   . .           .  ",
" XOX.+XoooX.+XOo+ oOoX++ +XX+++.",
" X+@ X#@##@ X@@#@ X@@@#@ X@@##@.",
" X@# X@#@@@ X@#@# X@#@.#.+@#@##.",
" .             . .      .     . ",
"OooO+OXX+ +XXo+ +oOo++.+XXoXX++ ",
"X+@##@@#@ X@#@# X@#@@#.o@#@@##@ ",
"X+#@@##@@.+@@#@ X@.#@@ O@#@#@@# ",
"     ..   .    .  ..  .    . .  ",
" XOX+.+oXoX+ Xo+X+.+XoX+XX+.+XX.",
" o+@# O@@@@# X@@@# X@@@#@.#.X@#.",
" X+#. X@#.#. +@#.# +@#.###. +#..",
"    .  . .     .  ..    .    .  ",
"XoX +XOo+ +XoO+ +XoOX+X+ +XX+++ ",
"o+# o#@@# X@#@#.X@###@@#.X@#.#@ ",
"X@. X@#.. X#.#. +@#.#@#. X#.#@# ",
"    ..   .  . ..  .    ..       ",
".OoX+ OXoo++ Xo+o@.ooX+ XXooX+@ ",
".X##. X#@#@# X@##. X@## X@###@# ",
".#... +..... #.... @... @...... "
};
