/* XPM */
static char *result[] = {
/* columns rows colors chars-per-pixel */
"32 32 13 1 ",
"  c #0000E0",
". c #C0C0C0",
"X c #8080FF",
"o c #0000A0",
"O c gray88",
"+ c blue",
"@ c #6060C0",
"# c #78A0A0",
"$ c #0000C0",
"% c #7070E0",
"& c #A0A0A0",
"* c #0070E0",
"= c #A8A8E0",
/* pixels */
"      .X   .            .X      ",
" o    OX o .  +  +    + OX   o  ",
"  + + ..+  X.O.     .O.O.X@+    ",
"      +O   XXXX.. OOXXXX.X@@ oo ",
"X  o  oO      XXX.XXXXXXX.X@@   ",
".XX    O.    +OXXXo @@@@@X...OO.",
"XO..Xo.XX...OOOXX ++     @+XXXXX",
" XXX.X.XXXXXXXXX o+     o   @@@@",
"  ++X.X     o XX#   o +    o    ",
"          $   XX.X  +  ++  +  o ",
"     +      $ ...XX+   +  o     ",
"  o+   +     .XXXO.     +  o    ",
"         o  .XX  %%&..  o.O.+ %%",
"  ..O.*    XOXo +  o%%.&.%XX.O+X",
"O.XXX..   +XOX     o  + +%XX=..O",
"@@  OXX.   XX.   +  +      XX.XX",
"  +.XXXO   oX. o+     o +  XO.X%",
"   OXXXX.O.O.O.   o     + X.XX% ",
" + .XX@@XXXX.XX.O  +  o  XXOXX% ",
" + .X@@@  X.XXXXXO+     oO.X.X  ",
"  +oO@@ + OX@@ XX.XXXX.OOXXX.X  ",
"   +.@+ +X.@ + o X....XXXo X.X  ",
"   OX   +X.o     ++ o  +   XOX% ",
"  OXX  o OX   +         +  O=X%%",
" +.X ++  .X+      + + o   X.=XX%",
"..XX  +  .X +  +          XOXXXO",
"XX.o     .X+   .X.  o   +XOX.O.X",
"  O.  +  OX  o...... ++ XX.XXXXX",
"  +X.X  +.X   .X%XXX..OOO.XXX@@@",
"    .XX .OXX OX%% +     XOX@@@+ ",
"    +.OX. ...X%% +  +  +X.X@    ",
"       .XXX.XX%         X.X     "
};
