/* XPM */
static char *collectibles_c1756813603[] = {
/* columns rows colors chars-per-pixel */
"13 13 8 1 ",
"  c black",
". c #006000",
"X c #008000",
"o c #00A000",
"O c #E0A800",
"+ c #FFC000",
"@ c yellow",
"# c None",
/* pixels */
"#####   #####",
"###  XXX  ###",
"## Xoo@XX. ##",
"# Xooo@oX.. #",
"# Xo@o+oOX. #",
"#Xooo@OOXX.. ",
"#X@@+++OOOO. ",
"#.ooo@OOXX.. ",
"# .X@o+XO.. #",
"# ..Xo+X... #",
"## ..XO... ##",
"###  .X.  ###",
"#####   #####"
};
