/* XPM */
static char *result[] = {
/* columns rows colors chars-per-pixel */
"32 32 11 1 ",
"  c black",
". c gray44",
"X c #A0A0A0",
"o c #808080",
"O c #505050",
"+ c #202020",
"@ c #909090",
"# c gray19",
"$ c gray25",
"% c #101010",
"& c #606060",
/* pixels */
"                                ",
" .XXo.O+.X@oO#o@X.O#o@Xo.$+o@.$ ",
" oo.OO$+OOO$$+OOOO$#@o@..O+@X.O ",
" O$$##+++###++#++##.o.OOO$%o@.O ",
" ##++X@o.O+.o.O+.O#OO$##+%%#..O ",
" .o.+OOO$$+X..O+o.O##++.o.O+o.$ ",
" o@.###++++OO$$#.Xo@.O#oX.O+OO$ ",
" O.@o.$#@.#++####OOO$$+o..$++++ ",
" $O.X.O+.oO+.o@.O###+++#O$$#..O ",
" ###$O$+@.O+X.OO$+.oX.O++##.oXO ",
" o.O##++OO$#O$++++OOo.$+$OO.@.O ",
" @oO#.o###$+++    ++OO+#+++#o.$ ",
" X.$+o@oO+++        ++O..XO+..$ ",
" OO$+.o.$+            +Oo.O+O$+ ",
" ++++OO$+              +oO#++++ ",
" o.O#++#+              +oO#.o.O ",
" .@o.O+O+              +oO+Xo.O ",
" o.o.O#O+              +.O+.@.O ",
" OO$$#.$+              +#++#o.O ",
" #+++#o$+              +..O#..O ",
" ..O+$$$+              +..O+OOO ",
" o@O#++#+              +oO#+##+ ",
" @o.O+.O+#%#%#%#%#%#%#%+XO+.o.O ",
" OO$$+XO+%%%%%%%%%%%%%%+@O+@..O ",
" #+++#@O+#$#$#$#$#$#$#$+.$+oXoO ",
" .O+.o.$+##############+.$#.o.$ ",
" .O#OO$$+OOOOOOOOOOOOOO+##+#..O ",
" X$#+++#+&O&O&O&O&O&O&O+X.O+OO$ ",
" @.O+X.O+OOOOOOOOOOOOOO+@.O++#+ ",
" ..$#o.O+&&&&&&&&&&&&&&+o.$+o.$ ",
" O$$#OO$+.&.&.&.&.&.&.&+O$$#OO$ ",
"                                "
};
