/* XPM */
static char *_2154ad73cc84cc9d72fe488c04eece9HviFBuHLQEI2hCNM[] = {
/* columns rows colors chars-per-pixel */
"32 32 174 2 ",
"   c #512528",
".  c #562F34",
"X  c #5D3B39",
"o  c #633735",
"O  c #6A3430",
"+  c #6D3935",
"@  c #6B3F3C",
"#  c #64403D",
"$  c #6D433D",
"%  c #73423D",
"&  c #523C43",
"*  c #553E48",
"=  c #5B484F",
"-  c #614746",
";  c #6D4745",
":  c #674845",
">  c #6C4B46",
",  c #6B4C49",
"<  c #734C46",
"1  c #7D4D44",
"2  c #7C4F48",
"3  c #785046",
"4  c #765149",
"5  c #7B574D",
"6  c #634C50",
"7  c #655557",
"8  c #6C5350",
"9  c #64585C",
"0  c #7C5A52",
"q  c #7D6056",
"w  c #79625C",
"e  c #6B646C",
"r  c #7F6861",
"t  c #7C6D6B",
"y  c #79767B",
"u  c #814D42",
"i  c #81544C",
"p  c #84594E",
"a  c #815E54",
"s  c #816056",
"d  c #8B6355",
"f  c #85645B",
"g  c #8C6559",
"h  c #856A5D",
"j  c #8D6B5C",
"k  c #926D5D",
"l  c #9E765F",
"z  c #836961",
"x  c #8B6B61",
"c  c #8D7366",
"v  c #8D766B",
"b  c #947363",
"n  c #987764",
"m  c #9C7967",
"M  c #937669",
"N  c #967B6C",
"B  c #9B7C6B",
"V  c #887774",
"C  c #8B7A76",
"Z  c #8E7F7A",
"A  c #987E70",
"S  c #A27A63",
"D  c #A27F6A",
"F  c #9E826D",
"G  c #8D837E",
"H  c #9C8373",
"J  c #94837B",
"K  c #9E897A",
"L  c #A2826D",
"P  c #A9866E",
"I  c #A38572",
"U  c #AA8771",
"Y  c #A58974",
"T  c #AA8B75",
"R  c #A68C79",
"E  c #AA8E7A",
"W  c #AD9077",
"Q  c #A6917E",
"!  c #AD927D",
"~  c #B2957D",
"^  c #B2987E",
"/  c #9A8983",
"(  c #A18E85",
")  c #A59285",
"_  c #AE9583",
"`  c #AE9982",
"'  c #A9978D",
"]  c #A49B8D",
"[  c #AC9A8B",
"{  c #B19681",
"}  c #B39B84",
"|  c #B89D84",
" . c #B59E89",
".. c #B89E88",
"X. c #A49590",
"o. c #AE9F96",
"O. c #B29C90",
"+. c #B9A086",
"@. c #B5A28C",
"#. c #BAA48D",
"$. c #ADA191",
"%. c #B5A591",
"&. c #BAA691",
"*. c #BDAA94",
"=. c #B5A79C",
"-. c #BEAD99",
";. c #BFB09A",
":. c #B6ABA0",
">. c #C0A48C",
",. c #C1A98F",
"<. c #C2AD95",
"1. c #C1AF99",
"2. c #C7B096",
"3. c #C4B29C",
"4. c #C9B59C",
"5. c #C5B5A1",
"6. c #CAB7A0",
"7. c #C6BAA4",
"8. c #CDBCA2",
"9. c #CDBDA5",
"0. c #CCBAA3",
"q. c #CDBDA9",
"w. c #D2BFA5",
"e. c #D0BFA6",
"r. c #D1BEA5",
"t. c #CDC0AB",
"y. c #D5C3A7",
"u. c #D4C0A4",
"i. c #D4C1A7",
"p. c #D8C2A5",
"a. c #D5C2A8",
"s. c #D7C4A8",
"d. c #D3C5AE",
"f. c #D7C7AE",
"g. c #D6C4AC",
"h. c #D4C3AA",
"j. c #D9C5AB",
"k. c #D9C5AA",
"l. c #D9C7AC",
"z. c #D9C6AC",
"x. c #DAC8AE",
"c. c #DDCBAF",
"v. c #DBC9AE",
"b. c #CCC0B2",
"n. c #D8C7B0",
"m. c #DCCAB0",
"M. c #DECDB2",
"N. c #DDCDB2",
"B. c #DFD1B6",
"V. c #E1CFB3",
"C. c #E1CEB2",
"Z. c #E1CFB3",
"A. c #E4D1B2",
"S. c #E0D0B5",
"D. c #E3D3B6",
"F. c #E2D1B5",
"G. c #E4D3B4",
"H. c #E5D1B6",
"J. c #E5D5B7",
"K. c #E4D2B5",
"L. c #E2D2B9",
"P. c #E5D5B8",
"I. c #E7D7B9",
"U. c #E6D7BA",
"Y. c #E4D5B9",
"T. c #E8D7B8",
"R. c #E7D8BA",
"E. c #E7D8BB",
"W. c #E9D9B9",
"Q. c #E8D9BA",
"!. c #E8D9BD",
"~. c #DBD3C5",
"^. c #EADBC4",
"/. c #EFE4CB",
/* pixels */
"h ! n H [ q E T ! Y Y } H N ! I  .[ x #.} @.! R Q 4.*.*.4.v.w.d.",
"I P m H.L.J j ~ I j.Y ! b E F N ^ ! <...#.#.+.~ <.2.h.j.H.i.j.1.",
"g { b Q G 9 @ ~ T s < m ! ! ^ | #.<.2.#.#.{ <.0.9.w.v.J.A.v.4...",
"b U T k 3 1 U ~ { { T { ^ ,.*.*.<.#.! 4.*.*.0.g.6.i.W.H.i.0.*.#.",
"E L E | | ! ! T N I } ! 4.4.1.{ {  .3.*.4.l.M.v.g.F.M.1.<.<.+.L ",
"H ~ ~ { ..I { T +.} W 1. .&.*.I @.4.4.m.v.E.T.F.F.g.4.3.*.3.#.! ",
"Q n ~ ~ ` { #.#.@. . .@.#. .*.@.6.l.g.C.C.W.W.F.0.&.*.4.<.*.*.{ ",
"J b.c ! v E Q I Q } 4.#.*.3.1.4.w.4.P.j.C.M.F.4.#.+.*.3._ #.+.! ",
"w t - n 5 ! @.{ ..*.@.6.9.8.*.F.P.M.P.P.P.w.&.*.1.*.*.#.*.{ ` } ",
"H < d W +.@.%.@.3.*.&._ v.v.P.P.D.v.P.F.M.1.#.1.*.@.<.#.} / J H ",
"M #.^ ....#.} *.*.5.6.1.v.P.w.m.P.B.h.#.&.#.*.4._ @.&.<.N o.C : ",
"N } #. .+. .6.-.6.3.H.F.P.P.v.L.d.*.@.#.*.#.6.h.1.*.4.*.} 0 ; 2 ",
"N { @.#.3.*.g.4.h.J.v.V.N.L.N.3.@.*.&.*.w.v.h.9.1.-.#.#.*.#.Q E ",
"%.4.4.8.3.n.4.v.V.P.S.L.h.4.&.#.#.*.6.h.F.H.l.q.3.*.*.} ! +..._ ",
"[ 4.0.w.i.N.m.H.M.F.N.6.*.-.*.*.4.h.M.P.C.C.h.*.#.4.*.@.x #.| Y ",
"Q l.w.v.E.M.F.l.w.3.&.&.5.%.;.6.h.F.P.m.1.*.#. .*.*.<.4. .} E b ",
"B.F.v.F.0.9.9.1.*.6.&.6.%.0.N.g.P.N.d.4.-.&.*.*.*.1.&.#.} ! T Q ",
"t.H.i.g.0.*.*.<.<.5.#.3.9.4.l.E.m.6.5.*.#.&.-.3.4.@..._ ~ { ! T ",
"Y.C.w.*.1.#.*.4.*.@.3.M.P.!.!.P.5.6.#.3.&.1.-. ..._ { ^ { >.} b ",
"] w.*.#.3.3.#.*.#.h.0.4.E.L.9.5.-.&.q.3.0.3.3.6.E  .} ,.+.^ Y k ",
"$.4.*.#.3. .#.3.N.w._ ) m.N.3.&.3.5.%.*... . .! } W ! ..! L Y f ",
") #.<.r.1.1.h.M.N.P.M.L.n. .3.*.3.&.*.} #.*.{ N b h R { E E } j ",
"@.r.w.F.J.M.F.l.P.P.F.g.&.3.*.@.5.<.#.} ` ! v ~./.L.r ~ ~ B m g ",
"7.C._ w.S.J.J.J.M.v.h.&.*.3.6.<. .} } #.{ R ' ^.L.q.e 4 I T D 0 ",
"$.F.3.j.H.C.J.v.<.<.6.3._ #.&. .} { @.} { W q V Z t & $ ~ T b d ",
"3.8.r.J.C.M.g.3.4.*.#.*.3.K O.A { ` ..I { T L g # X i T { m l k ",
"q.h.v.H.p.<.3.<.*.3.} 3.*.z / , ` ..I E F X.3.c ^ P L m B B P j ",
"5.r.w.l.*.#.*.#.&.} !  .@.Q 0 k I E ..I c Z J - T B =.3.[ F S d ",
"%.4.4.} *.&.! +.#.} _ ! { Q ! { N E ..N T h X j E C ^.^.:.7 b k ",
"[ &...@.*.#.{ { +.R ! ! ! ! n j T ! L E T I ! L m 8 3.%.y * o d ",
"N ! } { } | T ! L R b Y ^ n ' ( j ! g N k D g L k > 6 = &   < @ ",
"x Y Q Y b N B k g f c n k f ; . > % f 0 a p 0 2 p i 1 $ O u % + "
};
