/* XPM */
static char *d15a6a420d364909a14f2d37fe38cd133NiXRr1CzMatudKZ[] = {
/* columns rows colors chars-per-pixel */
"128 128 17 1 ",
"  c None",
". c #2F1425",
"X c #3A1527",
"o c #481A2C",
"O c #443528",
"+ c #5B2132",
"@ c #7C303D",
"# c #57493B",
"$ c #393D51",
"% c #515E78",
"& c #82574C",
"* c #A54748",
"= c #9F6E5B",
"- c #EA725E",
"; c #6883B5",
": c #D9D5C4",
"> c #FFFFF3",
/* pixels */
"                                    .                                                                                           ",
"                                   .-.                                                                                          ",
"                                  .-$-.                                                                                         ",
"                                  .-$$-.                                                                                        ",
"                                  .>>$>>O                                                                                       ",
"                                 .>>%%$>:O                            O                                                         ",
"                                 .:$$$$$.                            O>..                                                       ",
"                                 .->>%$>>.                          .>X-XOO                                                     ",
"                                .*>>$$$$>>O                        .>>-%X>>O                                                    ",
"                                .::$$;$$$::O                    OO.-:$$->>O                                                     ",
"                                .**$%%%$$%*.                   O>>-$$$$*:O                                                      ",
"                                .-->>$$$>>*.                  O>>>>$%%$*XO                                                      ",
"                                .->>$$;$$>>*.                .:>>$$%$$-*>>O                                                     ",
"                                .:>>$%%%$$::.               .::*$$$%%$>>>O                                                      ",
"                                .::$$$$$$$%*.              .***$$%$$$>>>O                                                       ",
"                                .**$$$;$$$$-.             .**-$$$$%$$::.                                                        ",
"                                .*-$$%%%$>>%.            .**--$%$$$$$**.                                                        ",
"                                .*->>$$$$$>>-.          .**--$$$;%%$--*.                                                        ",
"                                .*>>$$;%$$$::.         .**>>$$%$$$$$-*.                                                         ",
"                                .:>$$%%%%$%%*.         .>>>$$$$;%%$$-*.                                                         ",
"                                .::*$$$$$$>%-.        .:>>$$%%$$$$$-->.                                                         ",
"                                .:*-$%;;%%>>--.      .*::*$$$;;%%$$-*>.                                                         ",
"                                .*--$$%%%$$::-.      .***$$$$$$$$$$->>.                                                         ",
"                                 .*->$$$$$$$>-.     .*--$$$$%;;%$$$->>.                                                         ",
"                                 .*>>$%;%$$$$-.     .>--$$%$$$%%%$-->:.                                                         ",
"                                 .>>*$$%%%$>$-.    .>>-$$$$%;;$$$$-*:.                                                          ",
"                                 .:>*-$$$$$%>-.   O>>-$$$$$$%%%%$$-**.                                                          ",
"                                 .:*--$>;%$$>>.  O:>>-$$%%$$$$$$$$-**.                                                          ",
"                                  .@*->>%%%$:>.  O::-$$$$%;;;%$$$$>**.                                                          ",
"                                  .@*>>>$$$$$:.  O:*-$$$$$%%%%%%$$>*.                                                           ",
"                                  .@*:>:$$%%$*.  .*--$%%$$$$%%$$$>>>.                                                           ",
"                                  .@@::--$$$>-.  .*-$$$%;;;%$$$$$>>>.                                                           ",
"                                   .@:---$>$>>*. .*-$$$$$%%%%%$$-:>:.                                                           ",
"                                   .@**-->>$:>*X.**-$$%$$$$$$$$$-*:.                         O  .                               ",
"                                   .@@**->>%*:*XX**-$$$%;;;%%%%$--:.                        O>O..                               ",
"                                    .@***:>$-:*XX**>>>%$$%%%%$$--*.                      OO.>>X-.                               ",
"                                    .@@**::-$-*XX*>>>$%;%$$$$$$--*.                  O  O>>-:-*>.                               ",
"                                     .@***:-$**XX>>>%$$%;;;%%>$-*.                  O>OO:>--*>*:.                               ",
"                                     .X@****-$**X:>*$$$$%%%$$>-**.                 O>#XX::**%>**.                               ",
"                                      .@@****$**X::-$$%%$$$$$>>*.                 O>>X--:**$->:*.                               ",
"                                       .@@****$*X:*-$$%;;;%%$>>>.               O O:>-***$$%-:*.                                ",
"                      .    O           .X@@***$*X@*-$%$%%%%$$->:O              O>OX:-**$$$%-***.                                ",
"                     .-.  O>O           .X@@***+X@*--%;$$$$$$-::O             O>>X-***$%;$$>***.                                ",
"                     .--..#>O            .X@@**+X@**->%;%%$$-*:O              O>>-**$$$$%%->**.                                 ",
"                     .---->>O  O         .oX@@@@X@**>>$%%$$$-*.              O#:>-*$$;%$$->:**.                                 ",
"                     .-*$*:>. O>O         .oX@@@X@*>>>%$$$>-**.             O>#:-*$$$$%%%-:**.                                  ",
"                     .->$$*:-.X>>O         .oX@@X@*:>-$%%$>-*.              O>X-*$$%;$$>--:**.                                  ",
"                     .->%%***-->>O         .ooX@X@@::--$$$>>*.             O>>**$$$$%%$>-***.                                   ",
"                     .*>>$$***->:O   O      .o+o@X@*:*-$$@>:*.             O:>*$$%>$$$>>***.                                    ",
"                      .:>$;%***:-X. O>O      .o+@X@@**-$$@::*.             O:*$%;$>>%-:>**.                                     ",
"                      .:-$%$$$**---.#>O      .o++@X@***-$@*:*.             .:*$$%%>>-*:**.                                      ",
"                      .*-->$$%$**--->>>O      .o++X@@**-$@***.             .*$$$$$:>***@.      O                                ",
"                      .**>>$%;$$***-:>:O  O    .++@X@**-$@***.            .>*$%$$$::*@@.  O   O>O   O                           ",
"                       .*:>$$$$%$***-:.  O>O   .o++X@@**$@***.           O>>*$%>%-*:@..  O>O O>O   O>O     O                    ",
"                       .*::*$$%;$$$**--. O>O    .++@X@@*$@@**.           O>>$$$>>*@@.   O>O O>>O  O>>O    O>O   O               ",
"                       .**:--%>$;%$$***-.#>O     .++X@@*-$@**.           O:>%$$>>*@XO  O>>X.X:>X..X:>O   O>>O  O>O              ",
"                        .***-->%%$$%$***->>O      .++X@@*+@@*.           .-:$$-:>@X#>OO:>:---:*----:*X...:>>O O>>O              ",
"                        .@****>>$$;%$$$**:>:O      .++X@*-+@**.          .-*$$*:@X#>>XX::--*********-----::XX.X:>X....          ",
"                         .@@**:>$%%$$;%$**:. O     .++X@@*+@**.          .-*$**@.#:>X--******$$$$$*********----*:---*.          ",
"                          .@@*::*-$>%%$$$**-.>O     .++X@@*+@*.         .--*$*@. O::--****$$$$$$$$$$$$$$*************.          ",
"                           .@@@:*->>%$$%$$**->O      .++X@*-+@.         .-**$@@. .:--**$$$$$$%$$%$$%$$%$$$$$$$$$$$**.           ",
"                            .@@@**:>>$%;>$**>>.       .+X@@*+@@.        .-*+@@. .--**$$$$$%$$;$;%$%;$%%$$%$$%$$$>*@.            ",
"                             ..@@*::>-%$>%$*:>.       .o+X@**+@.        .**+@. .--**$$$%$%;$%;$%$$%;$%;$%%$%;$$$>@.             ",
"                               .@@@:***->>$$*:*.       .o+X@*-+.        .*@+@X.--*$$%$$;$%%$%%$%$$%%$%;$$;$$%$*>:.              ",
"                                ..@@@@**:>$$%-*.        .o+X**-+.       .@+@X--**$%$>%$%$>$$%$%>$%%$$%%$$%$$>*@:.               ",
"                                  .@>@@@*:*--%**.        .+X@*--.       .@+X-**$$%$>>$$$$>$$%$>>$$%$$$>$$$$>>@@.                ",
"                             OOO   .>>@@@@****%**.       .o+X@*-.       .@X**@$---->>-$$>>$$$$>>$$$$$>>--->>:@.                 ",
"                            O>>>O  O>>>X@@@@@**+**.       .+X@**-.     .@X**@--****>:***>:-$$:>$---*:>***:::..                  ",
"                             O>>>O  O>>:XX@>@@@@+*@.      .o+X@*-.     .X**@-****@@:@@@::****::****::***@@@.                    ",
"                        O    O>>::..X:::XXX>>XX@@+@@.      .+X@**-.    .**@****@@@@@........@@@@@@@@@@@@...                     ",
"                       O>OO   .::*---*:*--->>**XXX+@@..    .o+X@*-.   .@*@***@@@@...        ............                        ",
"                       O>>>O .-**-*********>>>****X++@@.   .o+X@**-.  .@+@*@@@@..                                               ",
"                        O>>:.--****$%%$%$$*:>:*%%@@X@+@@.  .ooX@@*-. .@+@@@@@@.        OO                                       ",
"                         O::*-**$$$$$>%$%$$-::------XXX@@. .ooX@@*-*.@@+@@@@+.        O>>O                                      ",
"                     OO  .**-**$$$%%$>>%$$--:----------XX@.XooX@@***X+X@@@++.     ....::.                                       ",
"                    O>>O.---*$$%$$%;%>>>----***********--XXoooX@@@**X+X@@++XX.....>>-----..O                                    ",
"                    O>>>---*$$$$%%$%;$>>>-******@@@@@@****-XooX@@@**@X+@++XX****$:>-$$**-->>O                                   ",
"                     O>>:-*$$$%$$;%$%$:>::****@@@@@@@@@@@**-XoX+@@**@X+++X***@+$*:--$%$**::*.                                   ",
"                 OO  .*:**$$$$;%$$;$$$-::**@@@++oooooo@@@@**-X++@@@*@X++X**@++******-%>>%*---. OO                               ",
"                O>>OOX-**$$%%$%;$>>$$--**@@@+ooo+++++@oo+@@@*-X++@@@@X+@*@++@@@@*****:>$;%**--.>>O                              ",
"                O>>>>--*$$$$;%$%%>>>$-**@@+........++++@oo@@@**X+@@@@X+*@+@@@@@@@@@@*:--$$$**-::.                               ",
"                 O>>::*$$%$$%;$$%$>>>*@@@..        ..+++@@o+@@*X++@@+o+@+@@+......@@@**--$;%$**--.OO                            ",
"              O   .::*$$$%;%$%%$$$:>::@@.            ..++@@o+@@X++@@+o+o@+..      ..@@**--%>$$%*-->>O                           ",
"             O>O .--*$%%$$%;>%%$$$*::@..               .++@@o@@@X++++oX@..          ..@@**>>$;$%*::.                            ",
"             O>>.--*$$%;%$%%;>>$$-*@@.                  .++@o+@@Xo++oo..              ..@::--%$$$;--. OO                        ",
"             O>>:-*$%%$%;%$$%>>>::@@.                    .++@o+@@X+oo.                  .@@**-$>$%$*-.>>O                       ",
"          O   O:-*$$%;$$>%$$$$>>::@.                    .Xo++o+@@Xoo.                    ..@**>:$$$%*::O                        ",
"         O>O  .-*$%$%;%$>>%$$$*::*.                    .oXo++@o+@+o.                       .@@:*-->>%%-.                        ",
"         O>>O.-*$$;%$%;$$>>$-*@@@.                    .ooXo+++X+++o.                        .@@**::---**.                       ",
"         O>>:**%%$%>$%%$$>>:@@@@.                  ===.ooXoo++Xo+oo.=                        ..@@********..                     ",
"          O:*>%$$$>>$$%$-:::@@..                ====&.+oXoooooXoooo.===                        ..@@@***..                       ",
"           .*>>--->>>--***:@@.                ====...o++ooo+++ooooo.&=====                       ......                         ",
"         ..*@:>>**:>::***@@..               ===&..*@@o+ooo++@++ooo++.&&======                                                   ",
"           ..:::***::*@@...                ===..****@@+oo++@@@++oo++@.&&&&====....                                              ",
"             .:.@@@@@@..                 ===&.***@@@@++o++@@@@@++o+@@@........*....                                             ",
"              O ......                ====&..**@.....++o+@@@*@@@+o+@@@@***----.&&==.                                            ",
"                                    ===&&..-*@..&&&&&.oo+@@**@@@@+++@...@@@@**-..&=                                             ",
"                                 ........--*@.&&&=&&&&.+@@**-*@@@++..&&&.......--.&=                                            ",
"                              =..***------*@.&&=====&&&.@@**--*@++.&&&&&&&&&&&&..*.=                                            ",
"                            ==........*****.&&=======&&.+@*---*@+.&&&&======&&&&&.*.=                                           ",
"                              =====&&&...**.&===   ===&&.@**-**@.&&&=============&.*.                                           ",
"                                 =====&&&.*.&==     ===&.@@*-*@.&&&=======      ===.....                                        ",
"                                    ====&&.*.==      ==&&.@*-*@.&&&====            ====                                         ",
"                                      ===&.*.&=      ===&&.*-*.&&&====                                                          ",
"                                       ==&.*.&=      ===&&.*-*.&&&===                                                           ",
"                                       ==.*.&==       ===&.*-*.&&===                                                            ",
"                                        =..&==        ===&.*-**.&===                                                            ",
"                                        =.===         ====.****.&&===                                                           ",
"                                        ===           ===.******.&&===                                                          ",
"                                                     ===.*@******.&&....                                                        ",
"                                                     ==.-@@**-@***..---*.                                                       ",
"                                                    ==.-@@+@*-@..*****..*.                                                      ",
"                                                   ==.-*...+*-.&&..**.&&.*.                                                     ",
"                                                  =..**.&&&.*-.&&&&..&==&...                                                    ",
"                                                =......==&&&.--.&==&&=======.                                                   ",
"                                                  =========&.*-.&====       =                                                   ",
"                                                        ===&&.-.&===                                                            ",
"                                                         ===&.-.&==                                                             ",
"                                                          ==&.*.==                                                              ",
"                                                          ==&.*.==                                                              ",
"                                                           =&..&=                                                               ",
"                                                           ==..==                                                               ",
"                                                           =.*.=                                                                ",
"                                                           =..=                                                                 ",
"                                                          =..=                                                                  ",
"                                                          =.=                                                                   ",
"                                                           =                                                                    ",
"                                                                                                                                "
};
