/* XPM */
static char *player1756813603[] = {
/* columns rows colors chars-per-pixel */
"32 32 20 1 ",
"  c black",
". c #604800",
"X c #7F5A48",
"o c #800000",
"O c #A00000",
"+ c #C00000",
"@ c #E00000",
"# c #FF4000",
"$ c #A5765E",
"% c #C09000",
"& c #FFC000",
"* c yellow",
"= c #CA8F72",
"- c #F2C44D",
"; c #F8E060",
": c #E5A282",
"> c #FFB691",
", c #FFD3AF",
"< c white",
"1 c None",
/* pixels */
"    1       1111111            1",
"1111111111111111   1111111111111",
"1111111111111   *&% 111111111111",
"111111111111 **&.%& 111111111111",
"111111111111 ,>&&.&% 11111111111",
"111111111111 :$:&.&% 11111111111",
"11111 111111 ,>X%.&% 11111111111",
"1111 - 111111 :  .&&% 1111111111",
"111 -<- 1111 ,,,:@.&% 1111111111",
"1111 - 1111 >#,>#>:.&% 111111111",
"11111 ; 111 #@>#@>,,X% 111111111",
"11111 ; 11 >#@@#+X >, 1111111111",
"11111 ; 11 ,@+:@+   ,> 111111111",
"11111 ; 11 ,=,,>:   ,> 111111111",
"111111 -  ,>X,:,:X >, 1111111111",
"111111 -  ,=X,,:@X=, 11111111111",
"111111 - ,> :@:@O:  111111111111",
"111111 =,=  :#@+=, 1111111111111",
"111111 ,X 1 :##+=,> 111111111111",
"1111111 - 1 >##+=>, 111111111111",
"1111111 - 1 ,##+ =, 111111111111",
"11111111 ;  ,#@+ =, 111111111111",
"11111111 ;  ,#@O  , 11111  11111",
"11111111 ;  ,#@O  ,> 111    1111",
"11111111 ; 1 @+o  >, 11      111",
"111111111 11 @+o  >,:        111",
"111111111111 >Oo 1 ,:       1111",
"111111111111 >  1  >,      11111",
"111111111111 , 1   >,     111111",
"11111111111 ,@      >=@  1111111",
"1111111111 @@+   11 @+@@ 1111111",
"1111111111    111111    11111111"
};
