/* XPM */
static char *player1756813603[] = {
/* columns rows colors chars-per-pixel */
"32 32 20 1",
"  c black",
". c #604800",
"X c #7F5A48",
"o c #800000",
"O c #A00000",
"+ c #C00000",
"@ c #E00000",
"# c #FF4000",
"$ c #A5765E",
"% c #C09000",
"& c #FFC000",
"* c yellow",
"= c #CA8F72",
"- c #F2C44D",
"; c #F8E060",
": c #E5A282",
"> c #FFB691",
", c #FFD3AF",
"< c white",
"1 c None",
/* pixels */
"11111111111111111111111111111111",
"11111111111111111111111111111111",
"1111111111111111*&%1111111111111",
"1111111111111**&.%&1111111111111",
"1111111111111,>&&.&%111111111111",
"1111111111111:$:&.&%111111111111",
"1111111111111,>X%.&%111111111111",
"11111-11111111:11.&&%11111111111",
"1111-<-111111,,,:@.&%11111111111",
"11111-111111>#,>#>:.&%1111111111",
"111111;11111#@>#@>,,X%1111111111",
"111111;1111>#@@#+X1>,11111111111",
"111111;1111,@+:@+111,>1111111111",
"111111;1111,=,,>:111,>1111111111",
"1111111-11,>X,:,:X1>,11111111111",
"1111111-11,=X,,:@X=,111111111111",
"1111111-1,>1:@:@O:11111111111111",
"1111111=,=11:#@+=,11111111111111",
"1111111,X111:##+=,>1111111111111",
"11111111-111>##+=>,1111111111111",
"11111111-111,##+1=,1111111111111",
"111111111;11,#@+1=,1111111111111",
"111111111;11,#@O11,1111111111111",
"111111111;11,#@O11,>111111111111",
"111111111;111@+o11>,111111111111",
"1111111111111@+o11>,:11111111111",
"1111111111111>Oo111,:11111111111",
"1111111111111>11111>,11111111111",
"1111111111111,11111>,11111111111",
"111111111111,@111111>=@111111111",
"11111111111@@+111111@+@@11111111",
"11111111111111111111111111111111",
};
