/* XPM */
static char *spawn_p1756813604[] = {
/* columns rows colors chars-per-pixel */
"32 32 6 1 ",
"  c black",
". c red",
"X c #FF8080",
"o c #FFC0C0",
"O c white",
"+ c None",
/* pixels */
"++++++++++++++++++++++++++++++++",
"++++++++++++++++++++++++++++++++",
"++++++++++++++++++++++++++++++++",
"++++++++++++++++++++++++++++++++",
"++++++++++++++++++++++++++++++++",
"++++++++++++++++++++++++++++++++",
"++++++++++++++++++++++++++++++++",
"++++++++++++..XXooOO++++++++++++",
"++++++++oooX   Oo   OOoo++++++++",
"++++++XX    ++ Oo ++    oo++++++",
"++++XX  +++++ O  o  ++++  XX++++",
"+++.  +++++++ O  o +++++++  .+++",
"++.          O    O          .++",
"+.oOOoXX..XXooOoX.XOOoXX..XooO.+",
"+XOX       O        X       OO.+",
"X   XX     O ++++++ .     OO   .",
"X ++  ... O ++++++++ . OOO  ++ .",
"o ++++   ..X  ++++   O.   ++++ X",
"o +++++ O   oo    OOO  . +++++ X",
"+o +++ O +++  OOoX   ++ X +++ O+",
"+o +++ O +   oO  ...  + X +++ O+",
"++O + O   ..X  ++   ..   X + o++",
"+++O O  ..   +++++++  OOO X o+++",
"++++oo..  ++++++++++++   OXo++++",
"++++++OO    ++++++++    OO++++++",
"++++++++OOOO        ..Xo++++++++",
"++++++++++++OOOooXX.++++++++++++",
"++++++++++++++++++++++++++++++++",
"++++++++++++++++++++++++++++++++",
"++++++++++++++++++++++++++++++++",
"++++++++++++++++++++++++++++++++",
"++++++++++++++++++++++++++++++++"
};
