/* XPM */
static char *cae8938582024077a5849dce2aceeb78uSUfEbMPqiDyuL0A[] = {
/* columns rows colors chars-per-pixel */
"192 63 17 1 ",
"  c None",
". c #CD9673",
"X c #AF4A3B",
"o c #AE7A64",
"O c #95332C",
"+ c #6F1919",
"@ c #9E6E5C",
"# c #8A5C4F",
"$ c #5C0D12",
"% c #673F3A",
"& c #764D45",
"* c #4E0F12",
"= c #860C00",
"- c #820B00",
"; c #9F6E5B",
": c #82574C",
"> c white",
/* pixels */
"....X..............X................................X...............X...............................................................X...............................................X...........",
"....X..........o..X..oXXX..................X....O...X..........o....X..........................................................o....X..........o....................................X..........o",
"...Xo..X.......X.oXXXXXo....................X...oO.Xo..X.......X...Xo..X...............................................X.......X...Xo..X.......X...................................Xo..X.......X",
"...Xo..X...X..Xo.XXXXXo.....X...............X...oOOXo..X...X..Xo...Xo..X...............................................X...X..Xo...Xo..X...X..Xo...................................Xo..X...X..Xo",
".XXXo.XX....XXX.OXXOoXX....Xo..............XXXX.oOOXo.XX....XXX..XXXo.XX......XXo..........................oX...XXX...XX....XXX..XXXo.XX....XXX..................................XXXo.XX....XXX.",
"XOoX.XoX...ooXX.XXOOoooXXXXX................oXXXoOOX.XoX...ooXX.XOoX.XoX....oXOXXX....Xo....................oX.XOOoX.XoX...ooXX.XOoX.XoX...ooXX.................................XOoX.XoX...ooXX.",
"Oo.XXO.OX..oXXXOXXOo...oXoooX................oOXX+OXXO.OX..oXXXXOo.XXO.OX..oXXOOXXXo.X.......................oXXo+.XXO.OX..oXXXXOo.XXO.OX..oXXXX................................Oo.XXO.OX..oXXXX",
"o..XOo..OX.oXXXOXO+o...Xo......X..............oOX+OOOo..OX.oXXXOo..XOo..OX.oXXXOOOXXX.......................XXo.o+.XOo..OX.oXXXOo..XOo..OX.oXXXO................................o..XOo..OX.oXXXO",
"o.OXOo..OXoXXXOOO+o....Xo.....Xo........o...X.oOO++OOo..OXoXXXOoo.OXOo..OXoXXXO++OoooX.....................Xo....+OXOo..OXoXXXOoo.OXOo..OXoXXXOo................................o.OXOo..OXoXXXOo",
"ooOXO...oOXXXOOO+oo...Xo....XXo.........X...X..oO++OO...oOXXXOOoooOXO...oOXXXOO+o....oXXXo................o......++XO...oOXXXOOoooOXO...oOXXXOOoo..............................oooOXO...oOXXXOOo",
"ooOXOoooooOXXOXO+oo..Xo.XXXXXo..........X.X.X..oOX+OOoooooOXXOO@ooOXOoooooOXXOOOo................................++XOoooooOXXOO@ooOXOoooooOXXOO@oo............................ooooOXOoooooOXXOO@",
"@oOXOooooooOXOX+@ooOXXXXXXXXXXXo........X.oXo..o+X++OooooooOXOO@@oOXOooooooOXOOO.................................O+XOooooooOXOO@@oOXOooooooOXOO@@o............................oo@oOXOooooooOXOO@",
"@@OOO@ooo@@#OXX+@OOXXXXOOXXoooo...oXXX..X..X...o+X++O@ooo@@#OXO#@@OOO@ooo@@#OXO+O...............................oO+OO@ooo@@#OXO#@@OOO@ooo@@#OXO#@@o...........................oo@@OOO@ooo@@#OXO#",
"@@OOO@@@@@@#OXO+O+OXXXOOoOOXX.......ooX.X..oX.oo+O#+O@@@@@@#OXO#@@OOO@@@@@@#OXO++OOXo...........................XO+OO@@@@@@#OXO#@@OOO@@@@@@#OXO#@@o...........................oo@@OOO@@@@@@#OXO#",
"@@OO+@@@@@@#OXO++@OXXOOo.ooooXX.......oXXo.oXXoo+O#++@@@@@@#OXO#@@OO+@@@@@@#OXO+++o..........................oXXXOOO+@@@@@@#OXO#@@OO+@@@@@@#OXO##@............................o@@@OO+@@@@@@#OXO#",
"@@OO+#@@@@@#OXX+@@OXOOo...X.Xo.........XXX..XoXo+X##+O@@@@@#OX+#@@OO+#@@@@@#OX+++o.............................oOOOO+#@@@@@#OX+#@@OO+#@@@@@#OX+##@.............................@@@OO+#@@@@@#OX+#",
"@#OO+#@@@@##OOO+@@OXO+o..XoXo......o...oXX..XooX+OO@+#@@@@##OO+#@#OO+#@@@@##OOOOo.............................o++#OO+#@@@@##OO+#@#OO+#@@@@##OO+#+.oX......................o.....OOOO+#@@@@##OO+#",
"@#OO+#@@@@#OOOO+@OOXO+o.XOoOX......X....XXXoXooo+OO@+#@@@@#OO+O+@#OO+#@@@@#OO+OO..............................XO+#OO+#@@@@#OO+O+@#OO+#@@@@#OO+O++.X..oXXXo.................X....OOOO+#@@@@#OO+O+",
"@#OO+#@@@##OOO++#OOO++o.XOooX..X.X.X.X..OXXoXoo@++O@##@@@##OO$O+@#OO+#@@@##OO++O...........................oXXoO+OOO+#@@@##OO$O+@#OO+#@@@##OO$O++oXXXXXo...................oX...oOOO+#@@@##OO$O+",
"#OOO+#@@@#OX+O+++OXO++ooOOo.X.Xo.oXX..X.oOXXXoo@++O@##@@@#OX+$O+#OOO+#@@@#OX+++Oo..............................oOOOO+#@@@#OX+$O+#OOO+#@@@#OX+$O++XXXXXo.....X...............X...oOOO+#@@@#OX+$O+",
"#OOO+##@@#OX+X+++OX+++@oOOo.OXX...oXX.XXoOXXoo@@++XO@##@@#OX+#++#OOO+##@@#OX+#OXo..Xo..........................oOOOO+##@@#OX+#++#OOO+##@@#OX+#++OXXOoXX....Xo.............oXXXX.oOOO+##@@#OX+#++",
"#XO++##@#O+O+O+#+OO+#+@@XOoooXX....oXooXXOXXo@@@@+OO@##@#O+O+#$+#XO++##@#O+O+#$OX.Xo....................oX....XXXOO++##@#O+O+#$+#XO++##@#O+O+#$+XXOOoooXXXXX................oXXXoOO++##@#O+O+#$+",
"#XO++##@#O+O+O+#+XO+#+@OO@ooOXXXo..oXXooOOXX@@@@#+O+@##@#O+O+#$+#XO++##@#O+O+#+oXXo.......................X.oXXXOOO++##@#O+O+#$+#XO++##@#O+O+#$OXXOo...oXoooX................oOXX+O++##@#O+O+#$+",
"#OO+++###+#X+O+#@XO+#+@X+@ooOXXOooooOXoo@OXXO@@@#+O++####+#X+##+#OO+++###+#X+#+o.oXX.......................XXXOOOOO+++###+#X+##+#OO+++###+#X+##OXO+o...Xo......X..............oOX+OO++###+#X+##+",
"#O++$+##O+#O+O+@@XO+@+@X+@@+XXOoooooOXo@@OXXO@@@#+X$+###O+#O+##+#O++$+##O+#O+#+....oX.....................XoooO++O++$+##O+#O+##+#O++$+##O+#O+##OO+o....Xo.....Xo........o...X.oOO++O$+##O+#O+##+",
"#X++#+##O+#O#O+@@OO+@+#X+@@+XXOoooo@@O@@OOXOO#@@#+O#$+##O+#O+@#+#X++#+##O+#O+++......o................oXXXo....o+O++#+##O+#O+@#+#X++#+##O+#O+@OO+oo...Xo....XXo.........X...X..oO++O#+##O+#O+@#+",
"+O+$#+##+##O+O+@@OO+@+OO+@@+XXO@@@@@@OO@OOXOO#@##+O+$+##+##O+@#$+O+$#+##+##O+++................................oOO+$#+##+##O+@#$+O+$#+##+##O+@XO+oo..Xo.XXXXXo..........X.X.X..oOX+O#+##+##O+@#$",
"OO+##+O++###+O+@@XO+@+OX+@++XOO@@@@@@OXOOOXOO###++O+#$O++##O+@@#OO+##+O++##O++O.................................OO+##+O++##O+@@#OO+##+O++##O+@X+@ooOXXXXXXXXXXXo........X.oXo..o+X++O+O++##O+@@#",
"O++#@+O+#@#+OO+#@OO+@#OO+@+#XO+@@@@@#+OO@OXOOO#O++OO+$O+#@#+++@#O++#@+O+#@#+++Oo...............................O+O+#@+O+#@#+++@#O++#@+O+#@#+++X+@OOXXXXOOXXoooo...oXXX..X..X...o+X++O+O+#@#+++@#",
"O+$#@++$#@#+O++#@OO+@#O+#@$@XO+@@@@@#+OO@OOO+O#O+++O+%+$#@#+$+@#O+$#@++$#@#+$+OX...........................oXOO++O$#@++$#@#+$+@#O+$#@++$#@#+$+O+O+OXXXOOoOOXX.......ooX.X..oX.oo+O#+O++$#@#+$+@#",
"X+$#@++##@++O+$#@OO+@OO+#+$@XO+@@@@@#+O@@OXO#O#O+$+O+%&##@++$+##X+$#@++##@++$+OXXXo..........................o++++$#@++##@++$+##X+$#@++##@++$+O++@OXXOOo.ooooXX.......oXXo.oXXoo+O#+O++##@++$+##",
"O+$#@++#@@++++$#@O++@XO++$#@OO+@@@@##++@@+XO#O#O&$+++&&#@@++&+##O+$#@++#@@++&+OOo.............................o+++$#@++#@@++&+##O+$#@++#@@++&+X+@@OXOOo...X.Xo.........XXX..XoXo+X##+O+#@@++&+##",
"O+$##++#@@++++$##O+$#OO+$$@@XO+##@@##++@@+O+#+OO#$++++&#@@+$&+#+O+$##++#@@+$&+#++o.............................oOO$##++#@@+$&+#+O+$##++#@@+$&OO+@@OXO+o..XoXo......o...oXX..XooX+OO@+O+#@@+$&+#+",
"O+$##++#@++&+$&##O+$#OO+$#@OO+++#@@#+#+@@+O+@+OX#&$+%+&#@++$&+&+O+$##++#@++$&+&+OX..............................OO$##++#@++$&+&+O+$##++#@++$&OO+@OOXO+o.XOoOX......X....XXXoXooo+OO@+++#@++$&+&+",
"O++&#++#@+$&+$&##O+$+O++$#@OO$++#@##+#+O@+X#@+OX##$+%$+#@+$&#+O+O++&#++#@+$&#+O+OoXXo...........................O++&#++#@+$&#+O+O++&#++#@+$&#O++#OOO++o.XOooX..X.X.X.X..OXXoXoo@++O@#++#@+$&#+O+",
"+++&#+$+#+%&+$&#&O+$+O+&++@X+$++###O+#@O@+O#@+OO##$+&%$+#+$&#$+O+++&#+$+#+$&#$OOo..............................oO++&#+$+#+$&#$+O+++&#+$+#+$&#O+++OXO++ooOOo.X.Xo.oXX..X.oOXXXoo@++O@#+O+#+$&#$+O",
"+++&#+$+#*&++$&#&O+$OO+&$+@X+#+++##+#@@+O+O@++OO##$++&*+#+&##&+O+++&#+$+#+&##&OOo..........................oX..oXO+&#+$+#+&##&+O+++&#+$+#+&#OX+++OX+++@oOOo.OXX...oXX.XXoOXXoo@@++XO@+O+#+&##&+O",
"+$+&#+&$+%&+$$&&+O++O++#&++O+#$++#++@@@+O+O@++OX##$$+&%$++&###+++$+&#+&$++&###OXXX....Xo....................oX.XO$+&#+&$++&###+++$+&#+&$++&#OO+#+OO+#+@@XOoooXX....oXooXXOXXo@@@@+OO@#+$++&###++",
"+$&+&+&$+%&+$$&&+O+OO+$##$+O+@$++#+#@@@+O+O+&+OO+#$$+&%$++####+++$&+&+&$++###*OOXXXo.X.......................oXXo+*+&+&$++####+++$&+&+&$++##+O+#+XO+#+@OO@ooOXXXo..oXXooOOXX@@@@#+O+@#++++####++",
"+&&+++&&*&&+$&&$+++OO+$@#$+X+@#++#+#@@@+++O+#+OO+#&$+&&&$+###&$++&&+++&&$+###*$OOOXXX.......................XXo.o+*+++&&$+###&$++&&+++&&$+#++O+#@XO+#+@X+@ooOXXOooooOXoo@OXXO@@@#+O++#$+++###&$+",
"+&#&++&#*&&$$&&$$++O++$@@#OO+@#+++#@@@@#++O&#++O+#&$$&&*$+&##+$++&#&++&#$+&##+$++OoooX.....................Xo....+*&++&#$+&##+$++&#&++&#$+&+$O+@@XO+@+@X+@@+XXOoooooOXo@@OXXO@@@#+X$+#&$++&##+$+",
"+&#&++&#*+&$$&$$$++O+$#@@#OO+@@+++O##@##++O##++O+$&$$&+*&+&##+%$+&#&++&#&+&#*+O+o....oXXXo................o......++*++&#&+&##+%$+&#&++&#&++$#O+@@OO+@+#X+@@+XXOoooo@@O@@OOXOO#@@#+O#$+&$$+&##+%$",
"+&#&+$+&#*&$$&$&$$O++$#@@#XO+#@++++OO###++O+##+O+$&$$&*%#+&&#+%$+&#&+$+&#+&&*+OOo................................++*+$+&#+&&#+%$+&#&+$+&#++$+O+@@OO+@+OO+@@+XXO@@@@@@OO@OOXOO#@##+O+$+#&$$&&#+%$",
"+&#&+$$+&*&$$$$#&$O++$#@@#OO+#@+++#+OO##++++##+++$$$$&*&#++&&$%$+&#&+$$+#++&*$OO.................................O+*+$$+#++&&$%$+&#&+$$+#+$#+O+@@XO+@+OX+@++XOO@@@@@@OXOOOXOO###++O+#$#+*$*&&$%$",
"+&&&+$$+&*+$%$&#&O+++$#@@#O+++@+++O#++O#++$+#&+O+&O%$+*&&++&+$%%+&&&+$$+&++&*$O+O...............................oO+=+$$+&++&+$%%+&&&+$$+&+$+OO+#@OO+@#OO+@+#XO+@@@@@#+OO@OXOOO#O++OO+$++&$+*+$%%",
"$+&&$%$&+&+$%$&#+O+O+&##@@O+$+#+$++@#++O++$+#&+O+&$%$+%&+&+&+%&%$+&&$%$$+&+&+=O++OOXo...........................XO+=$%$$+&+&+%&%$+&&$%$$+$&+O++#@OO+@#O+#@$@XO+@@@@@#+OO@OOO+O#O+++O+%$++$+&*%&%",
"$+&+$%%%$$$+&$&#+++O+&##@@O+$+#++++O@##+++$+#&+++&$%%$%&$$++$%&&$+&+$%%%$$++$%=+++o..........................oXXXO=+$%%%$$++$%&&$+&+$%%+$$&+O+$#@OO+@OO+#+$@XO+@@@@@#+O@@OXO#O#O+$+O+%&$+$$+$%&&",
"$$&$$%&%%+*+&$&+O+&O+&##@OO+&+#++$+O@@##++$++&+$+&$%%*+$$$$+$%&&$$&$$%&%%$$+$%=++o.............................oOO=$$%&%%$$+$%&&$$&$$%$$%$&+++$#@O++@XO++$#@OO+@@@@##++@@+XO#O#O&$+++&&&$$$+$%&&",
"*$&$%%&%%$*$&$&+++&O+&##@OO$&+#++%++O@@#++&++&+$+&$&%*$%&*$$$%&&*$&$%%&%%*$$$-OOo.............................o++=&$%%&%%*$$$%&&*$&$%*$%%&++++$##O+$#OO+$$@@XO+##@@##++@@+O+#+OO#$++++&&%$*$$%&&",
";$&$%&&&%$*$&&+O+&#++&###O+$&+&++%+&+#@#+&#$+&+&++%&&%$&&%*$$&&;;$&$%&&&%%*$$*OO..............................XO+$-$%&&&%%*$$&&;;$&$*&*$+&+&+$&##O+$#OO+$#@OO+++#@@#+#+@@+O+@+OX#&$+%+&+$***$&&;",
";*&$%&&&%**&&&+++##+$&&##O+&#+O++%+&++##+&#$+++&++%&&%*&;&;$$&;;;*&$%&&&%%*$*++O...........................oXXoO+O*$%&&&%%*$$&;;;*&*%&&&$+$&+$&##O+$+O++$#@OO$++#@##+#+O@+X#@+OX##$+%$+$&%*;*&;;",
";*$$&&&&$**&;&+$&##+$&&#+O+&#$+O+&++&+#++##$$++&$+&&&&*$;;;$*&;;;*$$&&&&&%*$*++Oo..............................oOO*$&&&&&%*$*&;;;*$$&&&&&$%&+$&#&O+$+O+&++@X+$++###O+#@O@+O#@+OO##$+&%$&&%*;;*;;",
";*$&;&&&*%;;;++$&&#+$&&#+O+##&+O+&++&$++$##&$++&$++&&&;*;;;;*;;;;*$&;&&&&%;***OXo..Xo..........................oOO*&;&&&&%;**;;;;*$&;&&&+*&++$&#&O+$OO+&$+@X+#+++##+#@@+O+O@++OO##$++&*+&&;;;;:;",
";**;;;&&*&;;;++$+&+$$&&#+O+##&+++&$+&&++$##&$+&&$++&&&;*;;;*;*;;;**;;;&&&&;*;**OX.Xo....................oX....XXXO*;;;&&&&;*;*;;;**;;;&$$%&+$$&&+O++O++#&++O+#$++#++@@@+O+O@++OX##$$+&%$$&;;;;;:",
" ;*;;;;&*;;;$+$%+&+$$&&#O+$##&+++&$+&#$+$##&$$&#&$+$&&;*;;;*;;:  ;*;;;;&&;;*;*+oXXo.......................X.oXXXOO*;;;;&&;;*;;:  ;*;;;$*$%&+$$&&+O+OO+$##$+O+@$++#+#@@@+O+O+&+OO+#$$+&%$*$;;;;;:",
"  ;*;;;$*;;;$+%&+&+%$&&&O+&##&+++&%+&#$$$&#&$$&##&+$&&;*$;;*; :   ;*;;;&&;;*;*+o.oXX.......................XXXOOO*;*;;;&&;;*; ;   :;;**&*&&+$&&$+++OO+$@#$+X+@#++#+#@@@+++O+#+OO+#&$+&&*%**;; ;:",
"  ;:; ;*;;;;$$&&$+$%$+&&O+&##++++&%++#&$$&#&%$&#&&$$&&;;*;;*; ::  ;:; ;&;;;*;*+....oX.....................XoooO++*;;: ;&;;;*;     :;***&*&&$$&&$$++O++$@@#OO+@#+++#@@@@#++O&#++O+#&$$&&*&***;  ;",
"   :  ;:;;;$$;&&&$$&$$&&+++#&+%$+&%$+##$$$&&%$&#&&%$$;&;:;;*; :;   :  ;&; ;**++......o................oXXXo....o+O*;;:;&; ;*;    :;*;**;*+&$$&$$$++O+$#@@#OO+@@+++O##@##++O##++O+$&$$&+*&**;*;  ",
"   :  ;:;;;$*;;&&$$&&$%&+$+#&+%$+&&$+##$*$$&&$+&&&&*$;;;: ;: :;    :   ;; :;*++................................oOO*; ::;;  :     ;*;;*;;;*&$$&$&$$O++$#@@#XO+#@++++OO###++O+##+O+$&$$&*%;&*;;*; ",
"   :  :;:;;**+;&;$*&;*%++$+&&$%$+&&$+&#$*%$&&$+&&&+**;;:;: : ;    :;:  ;; :;*+O.................................OO*  :;:;  :     :;;;*;;&*&$$$$#&$O++$#@@#OO+#@+++#+OO##++++##+++$$$$&*&;;*&;;:;",
"  :;: ;;;:$*;$;&;$*&;*%+$*+&+$&%$&&$$&#$%&*$&$+&&&$&*$;; ; :     :; ;: ; :; *+Oo...............................O+O*  : ;  :;:   :; ;;*;;&*+$%$&#&O+++$#@@#O+++@+++O#++O#++$+#&+O+&O%$+*&;;*;;;;:",
"::; ;  ;;;*;;$+;;$*;;*%+$*+&+%&%$&$*$&&$&&&$&%$%%+$&;*;;  :;:   :;   ; ; ;  *+OX...........................oXOO++O* :; ; :; ;:  ;   ;$;&;;+$%$&#+O+O+&##@@O+$+#+$++@#++O++$+#&+O+&$%$+%&;;$;   :",
";;     ;;;*;;;$;;*;;;*$+*;$+$%&&$&$&$$&$&;&*$%$%%$&&;*;   ; ;:  ;            *OXXXo..........................o+++*  ;    ;   ;::   ;**$;;;$;&$&#+++O+&##@@O+$+#++++O@##+++$+#&+++&$%%$%&;$**;  :"
};
